Coordinates
version=1
nRows=31
nColumns=38
inDegrees=no

Units are S.I. units (second, meters, Newtons, ...)
If the header above contains a line with 'inDegrees', this indicates whether rotational values are in degrees (yes) or radians (no).

endheader
time	pelvis_tilt	pelvis_list	pelvis_rotation	pelvis_tx	pelvis_ty	pelvis_tz	hip_flexion_r	hip_adduction_r	hip_rotation_r	knee_angle_r	ankle_angle_r	subtalar_angle_r	mtp_angle_r	hip_flexion_l	hip_adduction_l	hip_rotation_l	knee_angle_l	ankle_angle_l	subtalar_angle_l	mtp_angle_l	lumbar_extension	lumbar_bending	lumbar_rotation	arm_flex_r	arm_add_r	arm_rot_r	elbow_flex_r	pro_sup_r	wrist_flex_r	wrist_dev_r	arm_flex_l	arm_add_l	arm_rot_l	elbow_flex_l	pro_sup_l	wrist_flex_l	wrist_dev_l
0	0.767153	1.4157	-2.34147	0.932759	1.43142	0.911956	-0.275282	-0.179222	-0.300088	0.636241	0.0863607	0	0	0.233076	0.118362	-0.311979	0.281043	0.106805	0	0	-0.222666	-0.224905	-0.0857261	-0.150721	-0.162722	0.0809281	0.428371	1.10765	0	0	-0.136807	-0.331974	0.26209	0.59456	1.34792	0	0
0.01	0.767827	1.40914	-2.33314	0.935235	1.41963	0.914166	-0.256926	-0.197074	-0.303039	0.696605	0.0210389	0	0	0.217059	0.125785	-0.300879	0.287119	0.111385	0	0	-0.227396	-0.230301	-0.0967654	-0.152582	-0.160044	0.0806012	0.430533	1.10865	0	0	-0.139142	-0.335969	0.269612	0.593222	1.33734	0	0
0.02	0.697704	1.40113	-2.25123	0.938595	1.40767	0.917866	-0.241155	-0.220472	-0.322054	0.773529	-0.0516124	0	0	0.186866	0.12729	-0.28586	0.285506	0.113758	0	0	-0.242197	-0.224264	-0.110024	-0.153283	-0.16148	0.0869075	0.432614	1.104	0	0	-0.138977	-0.337944	0.286757	0.591092	1.29879	0	0
0.03	0.876007	1.40969	-2.42646	0.940485	1.39621	0.915333	-0.167354	-0.252231	-0.294915	0.865466	-0.101599	0	0	0.207193	0.144207	-0.285689	0.293692	0.120817	0	0	-0.209656	-0.242337	-0.114662	-0.159976	-0.159705	0.0949341	0.435555	1.09808	0	0	-0.148223	-0.346709	0.29803	0.599003	1.28158	0	0
0.04	0.899638	1.41262	-2.44403	0.942968	1.38492	0.916088	-0.124048	-0.26527	-0.279783	0.933052	-0.160778	0	0	0.199313	0.147749	-0.280409	0.295204	0.127827	0	0	-0.202613	-0.241323	-0.121437	-0.162035	-0.161375	0.102113	0.435746	1.09206	0	0	-0.150288	-0.349538	0.307127	0.5998	1.26882	0	0
0.05	0.987084	1.41839	-2.53166	0.944752	1.37356	0.914772	-0.0820133	-0.277703	-0.250488	0.966076	-0.206229	0	0	0.205777	0.159926	-0.271912	0.302148	0.132248	0	0	-0.182186	-0.245453	-0.122723	-0.166762	-0.162057	0.108061	0.437409	1.08615	0	0	-0.15741	-0.356651	0.317301	0.608573	1.2583	0	0
0.06	0.955451	1.4187	-2.49554	0.946947	1.36259	0.9166	-0.0517268	-0.283675	-0.237129	1.01582	-0.232012	0	0	0.186667	0.160834	-0.264425	0.299737	0.137513	0	0	-0.184583	-0.24031	-0.127535	-0.168919	-0.165159	0.113729	0.440798	1.07866	0	0	-0.155772	-0.359872	0.330482	0.610349	1.2445	0	0
0.07	0.890591	1.41564	-2.42937	0.948657	1.35196	0.919141	-0.0292281	-0.284179	-0.220024	1.05814	-0.224579	0	0	0.159561	0.160839	-0.256634	0.292878	0.140907	0	0	-0.193852	-0.234604	-0.129573	-0.172097	-0.170148	0.122411	0.451233	1.06029	0	0	-0.151678	-0.364421	0.35035	0.613609	1.20912	0	0
0.08	0.817702	1.41206	-2.35559	0.950103	1.34172	0.921953	-0.00708219	-0.280191	-0.201565	1.099	-0.192311	0	0	0.130736	0.159254	-0.247633	0.283828	0.142007	0	0	-0.205289	-0.227806	-0.131999	-0.173832	-0.173334	0.117837	0.461667	1.05389	0	0	-0.146668	-0.366207	0.357437	0.613323	1.19839	0	0
0.09	0.785547	1.40762	-2.32066	0.950484	1.33151	0.924397	0.0131344	-0.266174	-0.177784	1.12075	-0.165681	0	0	0.103959	0.153551	-0.250654	0.272464	0.148847	0	0	-0.212675	-0.227956	-0.135619	-0.177453	-0.173783	0.109629	0.47408	1.0558	0	0	-0.142812	-0.370409	0.360892	0.614622	1.20016	0	0
0.1	0.708218	1.40484	-2.24245	0.951826	1.32184	0.927326	0.0343826	-0.257406	-0.161564	1.15142	-0.125417	0	0	0.0752815	0.148346	-0.243345	0.261746	0.149234	0	0	-0.224384	-0.218376	-0.138829	-0.178229	-0.177047	0.100954	0.485886	1.06682	0	0	-0.137181	-0.370413	0.361922	0.613214	1.2105	0	0
0.11	0.63795	1.40356	-2.17147	0.953084	1.31241	0.93012	0.062764	-0.245682	-0.145499	1.17893	-0.10322	0	0	0.0492348	0.14189	-0.236603	0.250478	0.149162	0	0	-0.233305	-0.208149	-0.141908	-0.177119	-0.179586	0.0907724	0.494553	1.07879	0	0	-0.131693	-0.369908	0.360807	0.61093	1.22308	0	0
0.12	0.569054	1.40335	-2.10115	0.954586	1.30319	0.932935	0.095216	-0.239871	-0.133932	1.21064	-0.0812138	0	0	0.0245375	0.134784	-0.229085	0.237662	0.148022	0	0	-0.24044	-0.196407	-0.145747	-0.174246	-0.182382	0.0803532	0.501024	1.08864	0	0	-0.126103	-0.367913	0.356597	0.607269	1.23616	0	0
0.13	0.516874	1.40523	-2.04521	0.955959	1.2938	0.935247	0.120067	-0.229283	-0.126422	1.22333	-0.0554084	0	0	0.00404382	0.12813	-0.221585	0.225381	0.147507	0	0	-0.242663	-0.186232	-0.152047	-0.170398	-0.183979	0.0734642	0.502549	1.09929	0	0	-0.123037	-0.367401	0.350584	0.606087	1.24794	0	0
0.14	0.470493	1.40951	-1.99392	0.957582	1.28483	0.937285	0.154422	-0.224203	-0.121718	1.24807	-0.0261943	0	0	-0.0123652	0.121658	-0.212019	0.212871	0.14537	0	0	-0.242195	-0.175198	-0.159321	-0.164716	-0.185929	0.0691839	0.500865	1.11041	0	0	-0.119045	-0.365591	0.343311	0.603721	1.26471	0	0
0.15	0.406176	1.41193	-1.92605	0.957997	1.2755	0.939554	0.175739	-0.208529	-0.117895	1.24884	-0.00206566	0	0	-0.0316628	0.111504	-0.212766	0.200213	0.144119	0	0	-0.242793	-0.164609	-0.164835	-0.157794	-0.185119	0.0668122	0.493432	1.12152	0	0	-0.117233	-0.36666	0.333788	0.604459	1.28261	0	0
0.16	0.374428	1.41821	-1.88587	0.960349	1.26657	0.940778	0.203391	-0.203872	-0.121177	1.24885	0.0198174	0	0	-0.0447896	0.107546	-0.190591	0.186389	0.141774	0	0	-0.238137	-0.154038	-0.175162	-0.151664	-0.188719	0.0689257	0.48801	1.12794	0	0	-0.114508	-0.363688	0.322175	0.603944	1.29988	0	0
0.17	0.309508	1.42086	-1.81473	0.961586	1.25769	0.942581	0.223531	-0.190496	-0.121254	1.23992	0.0384865	0	0	-0.0624489	0.0982838	-0.17976	0.17293	0.139989	0	0	-0.238368	-0.141604	-0.182963	-0.144007	-0.190371	0.0729539	0.479044	1.13276	0	0	-0.112236	-0.362955	0.310291	0.60648	1.31177	0	0
0.18	0.256391	1.42255	-1.75429	0.962913	1.24885	0.944085	0.243242	-0.184312	-0.129162	1.22884	0.0548535	0	0	-0.0805633	0.0913216	-0.166748	0.157685	0.137152	0	0	-0.238706	-0.131143	-0.191521	-0.13826	-0.192028	0.0771919	0.472037	1.13716	0	0	-0.110321	-0.363751	0.301265	0.612006	1.31683	0	0
0.19	0.201076	1.4227	-1.69088	0.964347	1.2403	0.945595	0.256935	-0.179907	-0.136538	1.20961	0.0756953	0	0	-0.0997335	0.0839385	-0.15413	0.141786	0.134199	0	0	-0.241149	-0.120211	-0.200124	-0.133345	-0.193262	0.0774278	0.467663	1.13854	0	0	-0.107137	-0.365122	0.294966	0.618621	1.31603	0	0
0.2	0.142369	1.42149	-1.62499	0.96566	1.23196	0.947052	0.276864	-0.171302	-0.157184	1.20647	0.100036	0	0	-0.118787	0.0755312	-0.143557	0.127628	0.132458	0	0	-0.245204	-0.108714	-0.207139	-0.129532	-0.194337	0.0763995	0.465973	1.1406	0	0	-0.102867	-0.366916	0.290902	0.626022	1.31042	0	0
0.21	0.0893442	1.41983	-1.56565	0.966765	1.22372	0.948286	0.289772	-0.164499	-0.166178	1.18149	0.116844	0	0	-0.137125	0.0674134	-0.133899	0.114439	0.131208	0	0	-0.249442	-0.0981756	-0.212813	-0.127566	-0.194958	0.0747854	0.466882	1.14486	0	0	-0.0981679	-0.369544	0.288594	0.634255	1.30162	0	0
0.22	0.0452505	1.41752	-1.51535	0.967815	1.21547	0.94937	0.299033	-0.161607	-0.177122	1.15075	0.135015	0	0	-0.155547	0.0602113	-0.124486	0.101443	0.129582	0	0	-0.254061	-0.0889638	-0.21799	-0.126758	-0.19479	0.0697704	0.469089	1.14977	0	0	-0.093134	-0.372909	0.287818	0.642965	1.29093	0	0
0.23	0.00761843	1.41577	-1.47235	0.968639	1.2073	0.950231	0.309272	-0.156227	-0.186336	1.11621	0.147503	0	0	-0.172481	0.053512	-0.116146	0.0896121	0.128077	0	0	-0.258089	-0.0809898	-0.222259	-0.126282	-0.193697	0.0623617	0.47169	1.15521	0	0	-0.087681	-0.376621	0.287543	0.651224	1.27892	0	0
0.24	-0.0262048	1.41492	-1.43416	0.969228	1.1992	0.95085	0.321644	-0.148395	-0.193445	1.07922	0.152869	0	0	-0.187133	0.0470591	-0.110214	0.0799728	0.128037	0	0	-0.261172	-0.073942	-0.225405	-0.12608	-0.192095	0.0548453	0.474831	1.16022	0	0	-0.0815244	-0.380221	0.28674	0.658011	1.26776	0	0
0.25	-0.0592936	1.4141	-1.39692	0.969616	1.19102	0.95132	0.322984	-0.139323	-0.189783	1.01422	0.149332	0	0	-0.201287	0.0403649	-0.104556	0.0710107	0.129004	0	0	-0.263891	-0.0672682	-0.22811	-0.125945	-0.19006	0.0478652	0.476885	1.16547	0	0	-0.0752046	-0.383774	0.284931	0.663656	1.2595	0	0
0.26	-0.0816988	1.41418	-1.37021	0.970056	1.18273	0.951487	0.329786	-0.135388	-0.199815	0.967834	0.154475	0	0	-0.214666	0.0357391	-0.0973775	0.0619116	0.129433	0	0	-0.265364	-0.0624773	-0.231246	-0.126018	-0.188101	0.0421885	0.478153	1.17111	0	0	-0.0690988	-0.387211	0.283155	0.668812	1.24976	0	0
0.27	-0.100366	1.4148	-1.34703	0.970437	1.17441	0.951439	0.335783	-0.132353	-0.210909	0.91868	0.158467	0	0	-0.227262	0.0318127	-0.0886367	0.0530103	0.129095	0	0	-0.266142	-0.0584831	-0.234817	-0.125742	-0.186311	0.0395296	0.478549	1.17342	0	0	-0.0630466	-0.390474	0.280449	0.673115	1.2422	0	0
0.28	-0.117915	1.41572	-1.32563	0.970658	1.16613	0.951169	0.341353	-0.129047	-0.222218	0.866693	0.162184	0	0	-0.238605	0.0281901	-0.0807398	0.0458657	0.129441	0	0	-0.266676	-0.0549336	-0.23772	-0.125061	-0.184642	0.038499	0.478513	1.17207	0	0	-0.056831	-0.393561	0.277115	0.676898	1.23745	0	0
0.29	-0.133379	1.41707	-1.30688	0.970729	1.15788	0.950648	0.345627	-0.125473	-0.233549	0.812013	0.166632	0	0	-0.248541	0.0251143	-0.0746975	0.0404513	0.131822	0	0	-0.266917	-0.0520349	-0.239954	-0.124172	-0.182877	0.0375876	0.478171	1.16785	0	0	-0.0503623	-0.396548	0.273467	0.680299	1.23527	0	0
0.3	-0.121138	1.41948	-1.31267	0.971074	1.14898	0.94959	0.356631	-0.146734	-0.297165	0.792627	0.189678	0	0	-0.259509	0.0263663	-0.0644434	0.0337749	0.133134	0	0	-0.265598	-0.0535246	-0.245418	-0.126353	-0.18094	0.0385518	0.479127	1.16357	0	0	-0.0463021	-0.401015	0.271315	0.686014	1.2334	0	0
